<?xml version="1.0" encoding="UTF-8"?>
<svg width="210px" height="50px" viewBox="0 0 210 50" version="1.1" xmlns="http://www.w3.org/2000/svg" xmlns:xlink="http://www.w3.org/1999/xlink">
    <!-- Generator: Sketch 49 (51002) - http://www.bohemiancoding.com/sketch -->
    <title>@1xlogo50</title>
    <desc>Created with Sketch.</desc>
    <defs>
        <polygon id="path-1" points="0.0640932384 0.097197205 3.59852028 0.097197205 3.59852028 15.931677 0.0640932384 15.931677"></polygon>
    </defs>
    <g id="logo50" stroke="none" stroke-width="1" fill="none" fill-rule="evenodd">
        <path d="M14.8451306,39.626646 C14.8451306,40.396677 15.636095,41.020528 16.6123441,41.020528 C17.588732,41.020528 18.3796964,40.396677 18.3796964,39.626646 L18.3796964,34.1352484 C17.2124722,34.3057453 16.0338673,34.4408851 14.8451306,34.5399689 L14.8451306,39.626646 Z" id="Fill-1" fill="#51BB7C"></path>
        <g id="Group-5" transform="translate(23.626335, 32.021087)">
            <mask id="mask-2" fill="white">
                <use xlink:href="#path-1"></use>
            </mask>
            <g id="Clip-4"></g>
            <path d="M0.0640932384,14.5378649 C0.0640932384,15.307896 0.854918861,15.9317469 1.83116797,15.9317469 C2.80755587,15.9317469 3.59852028,15.307896 3.59852028,14.5378649 L3.59852028,0.097197205 C2.43573737,0.461669255 1.25713238,0.790085404 0.0640932384,1.08146739 L0.0640932384,14.5378649 Z" id="Fill-3" fill="#51BB7C" mask="url(#mask-2)"></path>
        </g>
        <path d="M32.5355722,35.5697562 C32.5355722,36.3397873 33.3263979,36.9636382 34.302647,36.9636382 C35.2791737,36.9636382 36.0699993,36.3397873 36.0699993,35.5697562 L36.0699993,28.507132 C34.9134619,29.096045 33.7351345,29.6477842 32.5355722,30.1589953 L32.5355722,35.5697562 Z" id="Fill-6" fill="#51BB7C"></path>
        <path d="M41.3807306,31.056354 C41.3807306,31.8263851 42.1715562,32.450236 43.1479441,32.450236 C44.124332,32.450236 44.9151577,31.8263851 44.9151577,31.056354 L44.9151577,22.9409814 C43.7695847,23.8154068 42.5908409,24.6481863 41.3807306,25.4365248 L41.3807306,31.056354 Z" id="Fill-8" fill="#51BB7C"></path>
        <path d="M16.6123996,9.93313043 C15.6361505,9.93313043 14.8451861,10.5574006 14.8451861,11.3270124 L14.8451861,34.5398851 C16.0339228,34.4408012 17.212389,34.3056615 18.3796132,34.1353043 L18.3796132,11.3270124 C18.3796132,10.5574006 17.5886488,9.93313043 16.6123996,9.93313043" id="Fill-10" fill="#2D966C"></path>
        <path d="M23.6904833,4.39381211 L23.6904833,33.1025543 C24.8833836,32.8111724 26.0619886,32.4827562 27.2247715,32.1182842 L27.2247715,4.39381211 C27.2247715,3.62420031 26.4338071,3.00006988 25.457558,3.00006988 C24.4813089,3.00006988 23.6904833,3.62420031 23.6904833,4.39381211 Z" id="Fill-12" fill="#2D966C"></path>
        <path d="M34.3027164,13.9891957 C33.3264673,13.9891957 32.5356416,14.6134658 32.5356416,15.3830776 L32.5356416,30.1590093 C33.7350651,29.6477981 34.9133925,29.096059 36.0699299,28.507146 L36.0699299,15.3830776 C36.0699299,14.6134658 35.2791043,13.9891957 34.3027164,13.9891957" id="Fill-14" fill="#2D966C"></path>
        <path d="M7.76724128,19.3022143 C6.79099217,19.3022143 6.00002776,19.9264845 6.00002776,20.6960963 L6.00002776,30.2567795 C6.00002776,31.0265311 6.79099217,31.6505217 7.76724128,31.6505217 C8.74349039,31.6505217 9.5344548,31.0265311 9.5344548,30.2567795 L9.5344548,20.6960963 C9.5344548,19.9264845 8.74349039,19.3022143 7.76724128,19.3022143" id="Fill-16" fill="#2D966C"></path>
        <path d="M43.1479996,18.5030171 C42.1716117,18.5030171 41.3807861,19.1272873 41.3807861,19.8968991 L41.3807861,25.4365109 C42.5907577,24.6481724 43.7696402,23.8155326 44.9150744,22.9409674 L44.9150744,19.8968991 C44.9150744,19.1272873 44.1242488,18.5030171 43.1479996,18.5030171" id="Fill-18" fill="#2D966C"></path>
        <text id="greenoize" font-family="SourceSerifPro-Regular, Source Serif Pro" font-size="36" font-weight="normal" letter-spacing="-0.482142895" fill="#101E17">
            <tspan x="53" y="34">greenoize</tspan>
        </text>
    </g>
</svg>