<?xml version="1.0" encoding="UTF-8"?>
<svg width="50px" height="50px" viewBox="0 0 50 50" version="1.1" xmlns="http://www.w3.org/2000/svg" xmlns:xlink="http://www.w3.org/1999/xlink">
    <!-- Generator: Sketch 49 (51002) - http://www.bohemiancoding.com/sketch -->
    <title>@1xlogo50</title>
    <desc>Created with Sketch.</desc>
    <defs>
        <polygon id="path-1" points="0.0640932384 0.097197205 3.59852028 0.097197205 3.59852028 15.931677 0.0640932384 15.931677"></polygon>
    </defs>
    <g id="logo50" stroke="none" stroke-width="1" fill="none" fill-rule="evenodd">
        <g id="Page-1" transform="translate(6.000000, 3.000000)">
            <path d="M8.8451306,36.626646 C8.8451306,37.396677 9.63609502,38.020528 10.6123441,38.020528 C11.588732,38.020528 12.3796964,37.396677 12.3796964,36.626646 L12.3796964,31.1352484 C11.2124722,31.3057453 10.0338673,31.4408851 8.8451306,31.5399689 L8.8451306,36.626646 Z" id="Fill-1" fill="#51BB7C"></path>
            <g id="Group-5" transform="translate(17.626335, 29.021087)">
                <mask id="mask-2" fill="white">
                    <use xlink:href="#path-1"></use>
                </mask>
                <g id="Clip-4"></g>
                <path d="M0.0640932384,14.5378649 C0.0640932384,15.307896 0.854918861,15.9317469 1.83116797,15.9317469 C2.80755587,15.9317469 3.59852028,15.307896 3.59852028,14.5378649 L3.59852028,0.097197205 C2.43573737,0.461669255 1.25713238,0.790085404 0.0640932384,1.08146739 L0.0640932384,14.5378649 Z" id="Fill-3" fill="#51BB7C" mask="url(#mask-2)"></path>
            </g>
            <path d="M26.5355722,32.5697562 C26.5355722,33.3397873 27.3263979,33.9636382 28.302647,33.9636382 C29.2791737,33.9636382 30.0699993,33.3397873 30.0699993,32.5697562 L30.0699993,25.507132 C28.9134619,26.096045 27.7351345,26.6477842 26.5355722,27.1589953 L26.5355722,32.5697562 Z" id="Fill-6" fill="#51BB7C"></path>
            <path d="M35.3807306,28.056354 C35.3807306,28.8263851 36.1715562,29.450236 37.1479441,29.450236 C38.124332,29.450236 38.9151577,28.8263851 38.9151577,28.056354 L38.9151577,19.9409814 C37.7695847,20.8154068 36.5908409,21.6481863 35.3807306,22.4365248 L35.3807306,28.056354 Z" id="Fill-8" fill="#51BB7C"></path>
            <path d="M10.6123996,6.93313043 C9.63615053,6.93313043 8.84518612,7.55740062 8.84518612,8.32701242 L8.84518612,31.5398851 C10.0339228,31.4408012 11.212389,31.3056615 12.3796132,31.1353043 L12.3796132,8.32701242 C12.3796132,7.55740062 11.5886488,6.93313043 10.6123996,6.93313043" id="Fill-10" fill="#2D966C"></path>
            <path d="M17.6904833,1.39381211 L17.6904833,30.1025543 C18.8833836,29.8111724 20.0619886,29.4827562 21.2247715,29.1182842 L21.2247715,1.39381211 C21.2247715,0.624200311 20.4338071,6.98757764e-05 19.457558,6.98757764e-05 C18.4813089,6.98757764e-05 17.6904833,0.624200311 17.6904833,1.39381211 Z" id="Fill-12" fill="#2D966C"></path>
            <path d="M28.3027164,10.9891957 C27.3264673,10.9891957 26.5356416,11.6134658 26.5356416,12.3830776 L26.5356416,27.1590093 C27.7350651,26.6477981 28.9133925,26.096059 30.0699299,25.507146 L30.0699299,12.3830776 C30.0699299,11.6134658 29.2791043,10.9891957 28.3027164,10.9891957" id="Fill-14" fill="#2D966C"></path>
            <path d="M1.76724128,16.3022143 C0.790992171,16.3022143 2.77580071e-05,16.9264845 2.77580071e-05,17.6960963 L2.77580071e-05,27.2567795 C2.77580071e-05,28.0265311 0.790992171,28.6505217 1.76724128,28.6505217 C2.74349039,28.6505217 3.5344548,28.0265311 3.5344548,27.2567795 L3.5344548,17.6960963 C3.5344548,16.9264845 2.74349039,16.3022143 1.76724128,16.3022143" id="Fill-16" fill="#2D966C"></path>
            <path d="M37.1479996,15.5030171 C36.1716117,15.5030171 35.3807861,16.1272873 35.3807861,16.8968991 L35.3807861,22.4365109 C36.5907577,21.6481724 37.7696402,20.8155326 38.9150744,19.9409674 L38.9150744,16.8968991 C38.9150744,16.1272873 38.1242488,15.5030171 37.1479996,15.5030171" id="Fill-18" fill="#2D966C"></path>
        </g>
    </g>
</svg>